<svg width="272" height="211" viewBox="0 0 272 211" fill="none" xmlns="http://www.w3.org/2000/svg">
<g clip-path="url(#clip0_3_46)">
<path d="M221.523 101.836C221.523 104.801 221.387 107.736 221.116 110.641C220.902 112.909 220.611 115.156 220.242 117.382C219.85 119.74 219.369 122.069 218.8 124.37V124.373C218.428 125.887 218.019 127.389 217.574 128.879C216.282 133.209 214.676 137.455 212.765 141.587C212.35 142.486 211.921 143.379 211.479 144.266C209.805 147.624 207.932 150.894 205.866 154.062C200.073 162.959 192.842 170.993 184.42 177.89C183.509 178.635 182.585 179.368 181.648 180.089C161.765 195.36 136.67 203.709 110.761 203.673C49.5887 203.673 0 158.08 0 101.836C0 45.5931 49.5887 0.000126132 110.761 0.000126132C135.777 -0.0361401 160.064 7.74921 179.632 22.0779C180.55 22.7462 181.455 23.4295 182.349 24.1279C186.713 27.5303 190.785 31.2364 194.53 35.2132H194.533C211.976 53.7003 221.562 77.3624 221.523 101.836Z" fill="#F2F2F2"/>
<path d="M32.6966 119.427C22.1453 113.653 14.1816 102.863 15.2154 91.6137C24.8619 100.102 37.4632 105.18 50.7897 105.949C55.9304 106.228 61.6796 106.047 65.4637 109.258C67.8184 111.256 68.9144 114.265 69.0942 117.206C69.2739 120.147 68.6331 123.073 67.9955 125.96L68.2149 126.668C55.9363 126.71 43.2479 125.201 32.6966 119.427Z" fill="#E6E6E6"/>
<path d="M15.4728 91.6016C19.7004 100.099 26.7327 107.156 35.5708 111.77C37.4708 112.747 39.4907 113.587 41.6373 113.977C43.7328 114.342 45.8964 114.184 47.9032 113.52C49.7879 112.936 51.6422 112.138 53.6486 111.985C55.7634 111.823 57.7213 112.574 59.2596 113.888C61.1417 115.495 62.2833 117.629 63.3208 119.751C64.4728 122.107 65.6287 124.571 67.8374 126.265C68.105 126.471 67.7429 126.84 67.4757 126.635C63.633 123.688 63.0057 118.751 59.9341 115.279C58.5008 113.659 56.5278 112.426 54.1839 112.458C52.1343 112.487 50.2214 113.309 48.3187 113.916C46.3207 114.553 44.3193 114.852 42.21 114.572C40.0524 114.285 37.9925 113.516 36.0736 112.587C31.7394 110.451 27.7975 107.701 24.3923 104.439C20.4835 100.736 17.2925 96.4458 14.9573 91.7534C14.8129 91.4629 15.3293 91.3131 15.4728 91.6016Z" fill="white"/>
<path d="M32.6299 110.438C31.5866 111.696 30.0909 112.573 28.4098 112.911C26.7287 113.249 24.9717 113.026 23.4525 112.283C23.1457 112.132 23.3871 111.686 23.6943 111.838C25.1076 112.532 26.7443 112.739 28.309 112.422C29.8737 112.104 31.2635 111.283 32.2273 110.106C32.4371 109.85 32.8384 110.184 32.6299 110.438Z" fill="white"/>
<path d="M46.99 113.933C46.551 110.724 44.8126 107.785 42.1215 105.702C41.8546 105.496 42.2167 105.126 42.4832 105.332C45.2792 107.504 47.0815 110.566 47.5304 113.906C47.573 114.224 47.0324 114.249 46.99 113.933Z" fill="white"/>
<path d="M21.1546 100.503C21.6686 100.093 22.0639 99.5728 22.305 98.9881C22.5461 98.4034 22.6255 97.7728 22.5361 97.1529C22.4892 96.8352 23.0299 96.8107 23.0765 97.1264C23.1719 97.8117 23.0832 98.5081 22.8184 99.1546C22.5535 99.8012 22.1205 100.378 21.5571 100.835C21.5079 100.883 21.4411 100.911 21.3701 100.914C21.2991 100.918 21.2294 100.896 21.175 100.854C21.1219 100.81 21.09 100.748 21.0862 100.682C21.0824 100.617 21.107 100.552 21.1546 100.503Z" fill="white"/>
<path d="M49.3693 69.8203C49.4047 70.0179 49.4401 70.2155 49.4797 70.415C49.971 73.0699 50.6961 75.6837 51.6478 78.2306C51.718 78.4286 51.7924 78.6283 51.8686 78.824C54.2327 84.9376 57.8107 90.5945 62.4208 95.5072C64.2572 97.4605 66.2526 99.2825 68.3897 100.957C71.3413 103.271 74.7417 105.563 76.6341 108.549C76.8353 108.859 77.0155 109.179 77.1736 109.509L69.1363 126.367C69.0971 126.396 69.062 126.428 69.0228 126.458L68.7353 127.145C68.6185 127.065 68.4993 126.981 68.3825 126.902C68.3145 126.856 68.2484 126.806 68.1804 126.761C68.1357 126.729 68.091 126.697 68.0487 126.671C68.0338 126.66 68.0189 126.65 68.0082 126.641C67.9658 126.615 67.9295 126.586 67.8914 126.561C67.2233 126.09 66.5576 125.614 65.8944 125.133C65.8902 125.131 65.8902 125.131 65.8878 125.126C60.8447 121.447 56.0912 117.349 52.1654 112.718C52.0474 112.578 51.9251 112.437 51.8107 112.29C50.0537 110.194 48.4861 107.968 47.1234 105.637C46.3817 104.358 45.7109 103.046 45.1136 101.705C43.5774 98.2364 42.6441 94.5676 42.3479 90.8328C41.7586 83.3874 43.7657 75.8517 48.9673 70.245C49.1005 70.1017 49.2319 69.9619 49.3693 69.8203Z" fill="#E6E6E6"/>
<path d="M49.5839 69.952C47.3949 79.077 48.3888 88.6042 52.4244 97.1803C53.3011 99.0128 54.3639 100.802 55.8227 102.301C57.2568 103.752 59.0875 104.824 61.1246 105.405C63.0121 105.982 65.0155 106.371 66.7176 107.359C68.5118 108.401 69.5838 110.084 69.9516 111.984C70.4017 114.31 69.9161 116.645 69.3549 118.914C68.7318 121.433 68.0412 124.04 68.6951 126.616C68.7744 126.928 68.2431 127.023 68.164 126.711C67.0262 122.23 69.7583 117.941 69.5792 113.469C69.4957 111.382 68.7276 109.305 66.8348 108.034C65.1797 106.922 63.1142 106.519 61.1976 105.95C59.1851 105.353 57.391 104.484 55.8905 103.093C54.3555 101.67 53.2144 99.9152 52.2905 98.1113C50.2288 94.0065 48.8818 89.6292 48.299 85.1397C47.603 80.0192 47.8647 74.827 49.0729 69.7877C49.1479 69.4759 49.6583 69.6421 49.5839 69.952Z" fill="white"/>
<path d="M50.9481 94.4892C49.2912 94.9164 47.5231 94.7881 45.9596 94.1274C44.396 93.4666 43.1388 92.3164 42.4125 90.882C42.2666 90.5914 42.7511 90.3693 42.8971 90.6604C43.5708 91.9971 44.742 93.0685 46.1993 93.6811C47.6567 94.2936 49.3042 94.407 50.8445 94.0008C51.1793 93.9129 51.2811 94.4018 50.9481 94.4892Z" fill="white"/>
<path d="M60.1257 105.228C61.8765 102.423 62.4129 99.1144 61.6281 95.9617C61.5501 95.6494 62.0813 95.5545 62.1593 95.8664C62.9693 99.1486 62.4034 102.591 60.5745 105.506C60.4 105.784 59.9521 105.505 60.1257 105.228Z" fill="white"/>
<path d="M48.2917 80.2042C48.9703 80.1618 49.6267 79.965 50.2021 79.6317C50.7776 79.2983 51.2539 78.8387 51.5884 78.2943C51.759 78.0146 52.2068 78.2944 52.0373 78.5722C51.6646 79.1722 51.1379 79.6791 50.503 80.0488C49.8682 80.4184 49.1445 80.6394 48.3953 80.6926C48.3252 80.7031 48.2533 80.6886 48.1944 80.6521C48.1354 80.6156 48.0938 80.5598 48.078 80.4961C48.0646 80.4313 48.0795 80.3644 48.1196 80.3097C48.1596 80.2551 48.2215 80.2172 48.2917 80.2042Z" fill="white"/>
<path d="M76.7253 23.6027L90.282 169.513L63.1685 171.387V25.4591C66.3994 23.4935 71.0371 23.186 76.7253 23.6027Z" fill="#CCCCCC"/>
<path d="M143.644 23.6027L130.087 169.513L157.2 171.387V25.4591C153.969 23.4935 149.332 23.186 143.644 23.6027Z" fill="#CCCCCC"/>
<path d="M153.141 177.418H66.9398C65.5576 177.417 64.2324 176.911 63.255 176.012C62.2777 175.114 61.7279 173.895 61.7263 172.624V27.6005C61.7279 26.3296 62.2777 25.1113 63.2551 24.2126C64.2324 23.314 65.5576 22.8085 66.9398 22.8071H153.141C154.523 22.8085 155.848 23.314 156.825 24.2126C157.803 25.1113 158.352 26.3296 158.354 27.6005V172.624C158.352 173.895 157.803 175.114 156.825 176.012C155.848 176.911 154.523 177.417 153.141 177.418ZM66.9398 24.3983C66.0164 24.3992 65.1311 24.7369 64.4782 25.3372C63.8253 25.9376 63.458 26.7515 63.457 27.6005V172.624C63.458 173.473 63.8253 174.287 64.4782 174.888C65.1311 175.488 66.0164 175.826 66.9398 175.827H153.141C154.064 175.826 154.949 175.488 155.602 174.888C156.255 174.287 156.622 173.473 156.623 172.624V27.6005C156.622 26.7515 156.255 25.9376 155.602 25.3372C154.949 24.7369 154.064 24.3992 153.141 24.3983L66.9398 24.3983Z" fill="#CCCCCC"/>
<path d="M157.489 46.9402H62.5917V48.5314H157.489V46.9402Z" fill="#CCCCCC"/>
<path d="M157.489 73.4601H62.5917V75.0513H157.489V73.4601Z" fill="#CCCCCC"/>
<path d="M93.3867 23.6027H91.656V96.002H93.3867V23.6027Z" fill="#CCCCCC"/>
<path d="M128.424 23.6027H126.694V96.002H128.424V23.6027Z" fill="#CCCCCC"/>
<path d="M168.305 181.794H54.6595C52.594 181.794 50.6132 181.039 49.1526 179.697C47.6921 178.354 46.8716 176.532 46.8716 174.633C46.8716 172.734 47.6921 170.913 49.1526 169.57C50.6132 168.227 52.594 167.473 54.6595 167.473H168.305C170.371 167.473 172.352 168.227 173.812 169.57C175.273 170.913 176.093 172.734 176.093 174.633C176.093 176.532 175.273 178.354 173.812 179.697C172.352 181.039 170.371 181.794 168.305 181.794Z" fill="#CCCCCC"/>
<path d="M157.489 92.2892H63.1685V97.5932H157.489V92.2892Z" fill="#CCCCCC"/>
<path d="M93.6553 109.169L93.5355 109.116C87.1058 106.26 78.6858 106.263 66.2337 109.126L66.1007 109.156L66.0609 109.035C64.7436 105.064 63.2514 100.567 66.0547 98.3536C66.0939 91.8601 72.2891 86.5874 79.8985 86.5874C87.5065 86.5874 93.7008 91.8574 93.7423 98.3492C97.9124 101.281 95.925 105.613 93.7226 109.064L93.6553 109.169Z" fill="#2F2E41"/>
<path d="M133.175 95.2648C133.06 95.791 132.82 96.2875 132.474 96.7194C132.127 97.1514 131.682 97.5082 131.169 97.7647C130.656 98.0213 130.088 98.1714 129.506 98.2044C128.923 98.2374 128.34 98.1525 127.796 97.9557L105.074 118.95L103.046 112.431L125.614 92.9351C126.034 92.1181 126.766 91.4711 127.67 91.1167C128.574 90.7624 129.588 90.7252 130.52 91.0124C131.452 91.2996 132.237 91.891 132.726 92.6748C133.216 93.4585 133.375 94.38 133.175 95.2648Z" fill="#FFB6B6"/>
<path d="M77.016 115.476C77.016 115.476 74.9544 119.771 80.0413 122.42C85.1281 125.069 102.907 121.41 105.792 120.899C108.676 120.388 119.451 105.563 119.451 105.563L117.927 98.2924L103.638 109.697L77.016 115.476Z" fill="#6D6D6D"/>
<path d="M73.264 139.229L73.5524 144.268C73.5524 144.268 72.7011 148.732 73.4012 149.695C74.0962 150.653 93.0586 150.774 93.0586 150.774C93.0586 150.774 94.3115 144.564 95.3907 139.129L73.264 139.229Z" fill="#FFB6B6"/>
<path d="M127.783 205.853L131.748 205.117L130.613 190.394L124.762 191.481L127.783 205.853Z" fill="#FFB6B6"/>
<path d="M133.462 186.694L137.147 185.171L132.366 171.084L126.927 173.333L133.462 186.694Z" fill="#FFB6B6"/>
<path d="M136.672 178.757L129.733 182.37L112.619 157.085C100.605 164.527 88.8569 168.091 77.0137 169.992C73.0096 170.648 68.9271 170.316 68.1584 166.569C68.1225 166.394 68.0938 166.217 68.0724 166.04C67.5996 161.947 73.137 156.701 73.8409 151.694L88.9957 150.857L90.8645 153.06L108.391 143.153C111.915 141.161 116.551 142.239 118.745 145.56C118.86 145.736 118.968 145.915 119.067 146.099L136.672 178.757Z" fill="#2F2E41"/>
<path d="M132.425 195.766L124.485 196.445L110.088 169.373C95.8111 171.631 82.3425 172.354 70.6927 169.623C66.7484 168.711 64.3373 164.966 65.3075 161.259C65.3528 161.086 65.4053 160.914 65.4648 160.745C66.859 156.834 70.5087 154.066 73.3842 149.764L94.3875 150.058L92.0416 157.5L112.445 155.072C116.548 154.584 120.295 157.315 120.815 161.171C120.842 161.375 120.86 161.58 120.868 161.785L132.425 195.766Z" fill="#2F2E41"/>
<path d="M81.465 105.32C86.1752 105.32 89.9935 101.81 89.9935 97.4791C89.9935 93.1484 86.1752 89.6377 81.465 89.6377C76.7548 89.6377 72.9364 93.1484 72.9364 97.4791C72.9364 101.81 76.7548 105.32 81.465 105.32Z" fill="#FFB6B6"/>
<path d="M76.4651 108.151L84.285 108.997C84.6148 109.033 84.9242 109.162 85.1703 109.367C85.4163 109.572 85.5866 109.843 85.6575 110.141L86.9011 115.373L94.6534 123.767C94.6534 123.767 97.4372 128.566 96.3933 134.005C95.3494 139.443 94.8906 143.485 94.8906 143.485C94.8906 143.485 74.0952 150.654 73.3992 149.694C72.7033 148.734 72.4774 144.374 72.4774 144.374L69.6936 115.9C69.6936 115.9 72.8254 111.101 74.5653 111.101C75.6882 111.066 75.5441 108.743 76.4651 108.151Z" fill="#6D6D6D"/>
<path d="M95.102 145.235C96.1986 145.235 97.0876 144.255 97.0876 143.045C97.0876 141.835 96.1986 140.854 95.102 140.854C94.0054 140.854 93.1165 141.835 93.1165 143.045C93.1165 144.255 94.0054 145.235 95.102 145.235Z" fill="#6D6D6D"/>
<path d="M125.816 202.062L131.86 199.277L132.999 201.721L140.642 203.141C141.019 203.211 141.362 203.391 141.621 203.653C141.88 203.915 142.041 204.246 142.081 204.598C142.12 204.951 142.036 205.305 141.841 205.61C141.646 205.916 141.349 206.156 140.996 206.295L133.611 209.205L131.212 207.29L131.841 209.903L129.057 211L125.816 202.062Z" fill="#2F2E41"/>
<path d="M131.732 185.522L137.722 182.64L138.907 185.064L146.576 186.361C146.955 186.425 147.302 186.599 147.565 186.857C147.829 187.115 147.996 187.443 148.043 187.795C148.089 188.146 148.012 188.502 147.822 188.811C147.633 189.119 147.341 189.364 146.99 189.509L139.663 192.538L137.227 190.662L137.907 193.264L135.144 194.406L131.732 185.522Z" fill="#2F2E41"/>
<path d="M76.5923 95.0195C74.3391 95.0228 72.14 94.3849 70.2969 93.1934L70.2354 93.1537V93.0847C70.2378 91.0809 71.1047 89.1597 72.6458 87.7428C74.187 86.3259 76.2764 85.5288 78.4559 85.5266H81.9172C84.0967 85.5288 86.1862 86.3259 87.7273 87.7428C89.2684 89.1597 90.1353 91.0809 90.1378 93.0847C90.1355 93.5434 89.9385 93.983 89.5888 94.3101C89.2392 94.6372 88.7644 94.8259 88.2657 94.836L76.7868 95.0179C76.722 95.0189 76.657 95.0195 76.5923 95.0195Z" fill="#2F2E41"/>
<path d="M90.7146 91.6332C91.8183 91.0473 92.0027 89.4413 91.1266 88.046C90.2504 86.6507 88.6455 85.9946 87.5418 86.5804C86.4381 87.1663 86.2537 88.7723 87.1298 90.1676C88.006 91.5629 89.611 92.219 90.7146 91.6332Z" fill="#2F2E41"/>
<path d="M73.4535 90.0766C74.6925 88.9374 74.9665 87.3422 74.0653 86.5136C73.1642 85.6851 71.4292 85.937 70.1901 87.0762C68.951 88.2154 68.6771 89.8106 69.5782 90.6392C70.4794 91.4677 72.2144 91.2158 73.4535 90.0766Z" fill="#2F2E41"/>
<path d="M148.933 161.771H140.42C140.228 161.771 140.039 161.809 139.864 161.883C139.69 161.957 139.535 162.065 139.411 162.2C139.097 162.147 138.774 162.163 138.468 162.247C138.162 162.331 137.883 162.481 137.652 162.684C137.421 162.887 137.246 163.137 137.14 163.414C137.035 163.691 137.003 163.987 137.046 164.278C137.09 164.569 137.207 164.846 137.39 165.087C137.572 165.328 137.814 165.525 138.096 165.663C138.378 165.802 138.691 165.876 139.01 165.882C139.329 165.887 139.645 165.822 139.932 165.694L140.638 167.803C140.722 168.053 140.89 168.272 141.119 168.427C141.348 168.583 141.625 168.666 141.909 168.666H147.444C147.729 168.666 148.005 168.583 148.234 168.427C148.463 168.272 148.632 168.053 148.715 167.803L150.204 163.354C150.266 163.171 150.279 162.977 150.244 162.789C150.209 162.6 150.127 162.422 150.003 162.268C149.879 162.114 149.718 161.989 149.532 161.902C149.346 161.816 149.141 161.771 148.933 161.771ZM139.052 165.351C138.67 165.351 138.303 165.212 138.032 164.963C137.762 164.714 137.61 164.377 137.61 164.025C137.61 163.674 137.762 163.337 138.032 163.088C138.303 162.839 138.67 162.699 139.052 162.699C139.078 162.699 139.103 162.705 139.129 162.707C139.072 162.92 139.079 163.144 139.149 163.354L139.758 165.174C139.544 165.289 139.3 165.35 139.052 165.351Z" fill="#3F3D56"/>
<path d="M110.921 156.014C110.339 156.064 109.753 155.996 109.204 155.814C108.654 155.633 108.155 155.343 107.74 154.965C107.326 154.587 107.007 154.13 106.805 153.626C106.604 153.122 106.525 152.584 106.574 152.049L78.1799 138.06L84.3903 134.404L111.179 148.687C112.15 148.822 113.034 149.281 113.663 149.976C114.292 150.67 114.621 151.553 114.59 152.456C114.558 153.359 114.167 154.22 113.49 154.876C112.814 155.532 111.9 155.937 110.921 156.014Z" fill="#FFB6B6"/>
<path d="M73.7493 112.351C73.7493 112.351 68.6824 111.767 67.3819 117.008C66.0815 122.248 74.9956 136.857 76.3557 139.251C77.7158 141.645 96.2532 146.881 96.2532 146.881L103.391 143.453L87.4085 134.14L73.7493 112.351Z" fill="#6D6D6D"/>
<path d="M109.463 90.698H111.194C112.035 90.698 112.842 91.0053 113.437 91.5524C114.032 92.0995 114.367 92.8415 114.367 93.6152H106.29C106.29 92.8415 106.625 92.0995 107.22 91.5524C107.815 91.0053 108.622 90.698 109.463 90.698Z" fill="#CCCCCC"/>
<path d="M54.585 36.2701C64.0542 36.2701 71.7305 29.2123 71.7305 20.5062C71.7305 11.8 64.0542 4.74225 54.585 4.74225C45.1158 4.74225 37.4395 11.8 37.4395 20.5062C37.4395 29.2123 45.1158 36.2701 54.585 36.2701Z" fill="#FF6584"/>
<path d="M107.08 19.6846C102.543 15.3082 97.2729 11.3157 91.0344 9.20597C89.2966 8.6158 87.4948 8.19948 85.66 7.96423C85.6453 7.96237 85.6313 7.96512 85.6166 7.96402C85.5868 7.95695 85.5565 7.95149 85.526 7.94767C82.9599 7.6471 80.3552 7.79168 77.8471 8.3739C76.6205 8.65689 75.424 9.04014 74.2717 9.51907C73.1153 10.0378 71.9948 10.6216 70.9167 11.2672C68.6347 12.5231 66.1222 13.3849 63.503 13.8101C62.1884 14.0277 60.8568 14.1478 59.5212 14.1694C58.3624 14.1908 57.2695 14.2278 56.1715 14.6127C54.9986 15.0182 53.9451 15.6702 53.0949 16.5165C52.2448 17.3629 51.6215 18.3802 51.275 19.4873C51.2483 19.5859 51.2563 19.6898 51.298 19.7839C51.3396 19.878 51.4127 19.9575 51.5067 20.0109C51.8037 20.2065 52.0933 20.4284 52.4053 20.6027C52.6829 20.7195 52.9794 20.7938 53.2831 20.8228C53.7792 20.919 54.276 21.0125 54.7734 21.1031C56.6058 21.4369 58.4458 21.7324 60.2934 21.9895C64.032 22.5099 67.7908 22.8764 71.5698 23.0892C79.1402 23.5108 86.7366 23.3009 94.2658 22.462C98.4972 21.9908 102.7 21.3225 106.858 20.4596C106.942 20.4369 107.018 20.3947 107.08 20.3369C107.141 20.2792 107.185 20.2079 107.207 20.1299C107.229 20.0519 107.23 19.97 107.207 19.8919C107.185 19.8139 107.141 19.7425 107.08 19.6846Z" fill="#E6E6E6"/>
<path d="M55.3987 30.2245C53.661 29.6344 51.8591 29.218 50.0244 28.9828C50.0096 28.9809 49.9956 28.9837 49.981 28.9826C49.9511 28.9755 49.9208 28.97 49.8903 28.9662C47.3242 28.6657 44.7195 28.8102 42.2114 29.3925C40.9848 29.6754 39.7883 30.0587 38.636 30.5376C37.4796 31.0563 36.3592 31.6401 35.281 32.2857C32.999 33.5417 30.4865 34.4035 27.8674 34.8286C26.5527 35.0462 25.2212 35.1664 23.8856 35.1879C22.7267 35.2093 21.6338 35.2463 20.5358 35.6313C19.363 36.0368 18.3094 36.6887 17.4593 37.5351C16.6091 38.3814 15.9859 39.3987 15.6393 40.5059C15.6126 40.6045 15.6206 40.7083 15.6623 40.8024C15.704 40.8965 15.7771 40.976 15.8711 41.0295C16.1681 41.225 16.4576 41.4469 16.7697 41.6212C17.0473 41.738 17.3438 41.8124 17.6474 41.8413C18.1436 41.9376 18.6403 42.031 19.1377 42.1216C20.9701 42.4554 22.8101 42.7509 24.6578 43.0081C28.3964 43.5284 32.1552 43.895 35.9342 44.1077C43.5045 44.5293 51.1009 44.3194 58.6301 43.4805C62.8616 43.0093 67.0643 42.341 71.2221 41.4781C71.3063 41.4555 71.3827 41.4132 71.4439 41.3555C71.5051 41.2977 71.549 41.2264 71.5714 41.1484C71.5938 41.0704 71.5939 40.9885 71.5717 40.9105C71.5494 40.8325 71.5057 40.7611 71.4446 40.7032C66.9071 36.3267 61.6373 32.3343 55.3987 30.2245Z" fill="#E6E6E6"/>
<path d="M179.042 147.742L165.857 131.817L155.453 137.225L177.499 161.295L179.042 147.742Z" fill="#3F3D56"/>
<path d="M209.414 121.854C209.707 128.528 210.831 135.149 212.765 141.587C212.35 142.486 211.921 143.379 211.479 144.265C209.805 147.623 207.932 150.894 205.866 154.062C200.073 162.959 192.842 170.993 184.42 177.89C183.509 178.635 182.585 179.368 181.648 180.089C176.309 173.321 173.428 165.853 172.289 158.167C172.144 157.191 172.026 156.205 171.937 155.224V155.218C171.718 152.834 171.648 150.439 171.726 148.047C171.729 147.856 171.735 147.663 171.743 147.469C171.844 144.913 172.095 142.351 172.473 139.813V139.81C172.516 139.518 172.56 139.227 172.609 138.935C172.747 138.06 172.903 137.185 173.073 136.315C174.064 131.298 175.446 126.353 177.209 121.519V121.517C177.258 121.376 177.307 121.238 177.362 121.1C177.553 120.575 177.746 120.056 177.945 119.536C177.957 119.495 177.973 119.455 177.991 119.416C178.248 118.737 178.51 118.064 178.779 117.396C178.851 117.21 178.926 117.024 179.003 116.839C179.306 116.093 179.615 115.354 179.929 114.624C180.027 114.391 180.128 114.157 180.229 113.927C180.307 113.749 180.382 113.571 180.463 113.396V113.394C180.922 112.351 181.386 111.33 181.856 110.328C183.174 107.512 184.53 104.862 185.851 102.42L185.854 102.417C191.337 92.3051 196.321 85.7388 196.321 85.7388L215.038 91.3079C212.806 94.9491 211.078 100.319 210.132 106.655C209.403 111.691 209.163 116.776 209.414 121.851L209.414 121.854Z" fill="#3F3D56"/>
<path d="M178.305 120.233C178.196 119.997 178.072 119.766 177.945 119.536C177.287 118.364 176.44 117.291 175.433 116.353C175.283 116.213 175.127 116.072 174.965 115.94C173.228 114.468 171.115 113.423 168.822 112.901C166.529 112.379 164.13 112.397 161.847 112.953L161.835 112.959L161.749 112.98L161.769 113.07C161.856 113.49 161.981 113.903 162.144 114.303C162.187 114.412 162.236 114.516 162.285 114.619C162.306 114.667 162.332 114.709 162.355 114.757C162.355 114.757 162.352 114.759 162.358 114.759C162.358 114.762 162.36 114.765 162.36 114.767C162.415 114.866 162.467 114.966 162.525 115.062C162.407 114.958 162.294 114.852 162.184 114.744C162.078 114.643 161.98 114.537 161.882 114.431C161.545 114.07 161.242 113.685 160.973 113.28L160.927 113.208L160.846 113.237C159.758 113.584 158.719 114.052 157.754 114.63L157.65 114.693C156.913 115.138 156.083 115.435 155.213 115.566C154.343 115.697 153.452 115.658 152.6 115.452C151.255 115.133 149.854 115.075 148.484 115.281C147.114 115.487 145.805 115.952 144.642 116.648C143.871 117.11 143.174 117.669 142.571 118.308C142.519 118.364 142.467 118.422 142.415 118.478C142.305 118.6 142.201 118.724 142.1 118.852C141.016 120.184 140.351 121.765 140.176 123.421L140.171 123.482L140.226 123.516C141.201 124.131 142.305 124.554 143.468 124.758C142.737 124.851 141.998 124.868 141.264 124.808H141.261C140.928 124.783 140.597 124.74 140.269 124.681L140.208 124.67H140.205L140.13 124.657L140.142 124.784C140.228 126.404 140.783 127.974 141.748 129.332L141.777 129.369C141.788 129.383 141.798 129.397 141.806 129.412C142.215 129.987 142.556 130.602 142.821 131.244C143.496 132.841 143.644 134.585 143.248 136.259C142.8 138.05 142.949 139.923 143.676 141.634C144.402 143.345 145.672 144.816 147.321 145.854C148.769 146.77 150.457 147.315 152.21 147.432C152.45 147.451 152.692 147.461 152.934 147.461C154.321 147.465 155.694 147.202 156.964 146.689L157.01 146.674L157.021 146.626C157.266 145.901 157.609 145.208 158.042 144.563C157.901 145.071 157.829 145.594 157.829 146.119V146.294L157.993 146.207C158.135 146.13 158.279 146.048 158.409 145.971C159.188 145.503 159.894 144.939 160.506 144.295C160.745 144.04 160.987 143.793 161.241 143.547L161.244 143.544C161.737 143.062 162.259 142.589 162.802 142.139C163.955 141.186 165.19 140.32 166.494 139.548C167.797 138.778 169.159 138.098 170.569 137.511H170.572C170.731 137.442 170.893 137.376 171.051 137.312C171.754 137.031 172.43 136.697 173.073 136.315C173.096 136.302 173.116 136.291 173.137 136.278C175.925 134.599 177.975 132.065 178.921 129.127C179.868 126.189 179.65 123.037 178.305 120.233Z" fill="#6D6D6D"/>
<path opacity="0.15" d="M143.724 140.025C143.645 140.347 143.585 140.673 143.545 141.001C143.008 139.441 142.93 137.778 143.319 136.181C143.379 135.937 143.424 135.69 143.46 135.441C143.993 136.92 144.084 138.503 143.724 140.025Z" fill="black"/>
<path opacity="0.15" d="M143.942 128.521C143.087 128.63 142.221 128.634 141.365 128.532C141.141 128.144 140.948 127.741 140.787 127.327C141.739 127.918 142.813 128.324 143.942 128.521Z" fill="black"/>
<path opacity="0.15" d="M141.297 124.723C140.982 125.464 140.772 126.24 140.674 127.031C140.41 126.278 140.255 125.496 140.211 124.706L140.204 124.578L140.34 124.603C140.657 124.657 140.976 124.697 141.297 124.723Z" fill="black"/>
<path opacity="0.15" d="M144.716 116.569C145.878 115.872 147.186 115.406 148.555 115.2C149.925 114.994 151.326 115.052 152.669 115.371C153.522 115.579 154.413 115.618 155.284 115.488C156.155 115.357 156.986 115.06 157.723 114.614L157.827 114.551C158.791 113.972 159.829 113.503 160.917 113.155L161 113.129L161.046 113.198C161.476 113.852 161.997 114.452 162.597 114.982C162.233 114.358 161.978 113.686 161.841 112.99L161.822 112.898L161.92 112.874C164.062 112.353 166.307 112.305 168.473 112.733C170.638 113.162 172.663 114.055 174.382 115.34C176.101 116.625 177.465 118.266 178.363 120.128C179.261 121.99 179.667 124.021 179.549 126.054C179.094 124.396 178.287 122.838 177.172 121.468C176.058 120.099 174.659 118.947 173.057 118.079C171.455 117.21 169.682 116.643 167.839 116.409C165.997 116.175 164.122 116.28 162.324 116.718L162.226 116.741L162.246 116.833C162.382 117.53 162.637 118.202 163.001 118.825C162.402 118.295 161.88 117.696 161.45 117.042L161.405 116.972L161.322 116.999C160.233 117.346 159.196 117.815 158.231 118.394L158.127 118.458C157.39 118.903 156.559 119.201 155.688 119.331C154.817 119.462 153.927 119.422 153.074 119.215C150.841 118.682 148.476 118.878 146.382 119.769C144.289 120.66 142.597 122.191 141.594 124.102C141.147 123.904 140.715 123.682 140.298 123.436L140.241 123.403L140.248 123.342C140.391 121.977 140.868 120.659 141.641 119.486C142.415 118.314 143.466 117.317 144.716 116.569Z" fill="black"/>
<path d="M251.947 48.8072L251.673 48.6401L251.474 48.8788C249.934 50.6618 248.708 52.6567 247.843 54.7901C247.962 52.3324 248.43 49.8994 249.233 47.5528L249.32 47.3062L249.072 47.1762C245.844 45.496 242.405 44.185 238.832 43.2725L238.443 43.177C235.704 42.4861 233.154 41.2721 230.96 39.6143C228.766 37.9565 226.976 35.892 225.708 33.5556C222.761 28.1934 218.105 23.7851 212.363 20.9188C206.62 18.0526 200.063 16.8647 193.567 17.5137H193.564C193.495 17.519 193.423 17.527 193.353 17.5349C193.235 17.5456 193.12 17.5588 193.004 17.5721C192.768 17.6012 192.537 17.6304 192.306 17.6622C192.11 17.6888 191.911 17.7179 191.715 17.7498C191.611 17.763 191.51 17.7789 191.409 17.7975C191.308 17.8134 191.205 17.8293 191.104 17.8479H191.101C189.164 18.1847 187.266 18.6863 185.43 19.3463H185.427V19.3489L184.963 19.516C184.484 19.6963 184.009 19.8872 183.538 20.0888C183.431 20.1339 183.327 20.1816 183.221 20.2267C183.192 20.24 183.16 20.2532 183.131 20.2691C182.828 20.4017 182.528 20.5396 182.231 20.6855C182.188 20.7041 182.145 20.7253 182.101 20.7465L181.824 20.8817C181.216 21.1841 180.618 21.505 180.03 21.8444C179.981 21.8709 179.935 21.8975 179.886 21.9266C179.834 21.9584 179.779 21.9903 179.727 22.0221C179.696 22.038 179.664 22.0592 179.632 22.0778C179.543 22.1282 179.456 22.1812 179.37 22.2369C179.197 22.3403 179.024 22.4464 178.854 22.5551C178.678 22.6639 178.505 22.7779 178.331 22.8919L178.158 23.006L178.19 23.2022C178.219 23.364 178.245 23.5258 178.277 23.6849C178.306 23.844 178.334 24.0005 178.366 24.1569C178.415 24.4195 178.47 24.6794 178.525 24.9313C178.562 25.0984 178.597 25.2628 178.637 25.4246C178.675 25.5917 178.715 25.7587 178.758 25.9258C178.842 26.2706 178.931 26.6047 179.027 26.9336C179.073 27.098 179.122 27.2624 179.174 27.4242C179.203 27.5223 179.231 27.6204 179.263 27.7159C179.286 27.7822 179.309 27.8485 179.332 27.9148C179.338 27.936 179.344 27.9599 179.353 27.9838C179.359 28.0062 179.367 28.0284 179.376 28.0501C179.407 28.1482 179.439 28.2437 179.471 28.3365C179.488 28.3869 179.505 28.4373 179.526 28.485C179.566 28.599 179.609 28.7157 179.653 28.8271C179.699 28.9544 179.748 29.0817 179.797 29.2063C179.808 29.2382 179.82 29.2673 179.831 29.2992C179.84 29.323 179.849 29.3469 179.86 29.3708C179.872 29.3973 179.883 29.4264 179.895 29.453C179.944 29.5723 179.993 29.6943 180.045 29.8136C180.062 29.8561 180.079 29.9012 180.1 29.9436C180.567 31.024 181.142 32.0626 181.816 33.0464C181.069 32.4577 180.35 31.8336 179.658 31.1741C178.591 30.1545 177.608 29.0632 176.716 27.9095C176.644 27.8193 176.572 27.7265 176.506 27.6337C176.37 27.456 176.237 27.2783 176.108 27.098C175.969 26.9124 175.836 26.7188 175.707 26.5278C175.62 26.4005 175.534 26.2706 175.45 26.1433C175.366 26.0213 175.288 25.902 175.213 25.78L174.988 25.4246H174.986V25.4272L174.668 25.7137C174.541 25.8277 174.414 25.9417 174.29 26.0558C170.414 29.6421 167.606 34.0851 166.136 38.9577L166.093 39.1035L166.05 39.2547C165.966 39.5252 165.882 39.7878 165.793 40.0556V40.0583C165.706 40.3235 165.614 40.5887 165.516 40.8485C165.427 41.0952 165.334 41.3392 165.236 41.5831C165.205 41.6654 165.17 41.7476 165.132 41.8298C165.072 41.9889 165.005 42.1454 164.939 42.3045C164.907 42.3761 164.876 42.4503 164.844 42.522C164.766 42.697 164.688 42.872 164.61 43.0444C164.599 43.0709 164.584 43.1001 164.57 43.1266C164.547 43.1796 164.521 43.2327 164.498 43.2831C164.437 43.4104 164.374 43.5403 164.313 43.6676C164.27 43.7498 164.23 43.8347 164.189 43.9169C164.172 43.954 164.152 43.9912 164.134 44.0283C164.028 44.2404 163.918 44.4499 163.803 44.6568C163.673 44.9008 163.54 45.1448 163.399 45.3835C163.275 45.6062 163.145 45.8237 163.009 46.0412C162.776 46.4257 162.531 46.8076 162.277 47.1789C162.179 47.3221 162.081 47.4653 161.98 47.6085C161.957 47.643 161.934 47.6774 161.911 47.7093C161.827 47.8339 161.74 47.9533 161.651 48.0752C161.59 48.1574 161.53 48.2397 161.469 48.3192C161.368 48.4624 161.262 48.6003 161.152 48.7356C161.123 48.778 161.091 48.8178 161.06 48.8576C160.898 49.0644 160.737 49.266 160.572 49.4675C160.566 49.4702 160.566 49.4728 160.564 49.4755C160.558 49.4755 160.558 49.4781 160.555 49.4808C160.483 49.5683 160.411 49.6558 160.336 49.7407C160.238 49.8653 160.131 49.9873 160.024 50.1067C159.851 50.3082 159.669 50.5124 159.485 50.7113C159.479 50.7166 159.476 50.7219 159.47 50.7246C158.515 51.757 157.479 52.7248 156.372 53.6205C156.352 53.6365 156.338 53.6524 156.318 53.6656C156.162 53.7903 156.006 53.9149 155.845 54.0369C155.778 54.0873 155.712 54.1377 155.646 54.1881C155.536 54.2729 155.423 54.3578 155.314 54.4347C155.301 54.4469 155.286 54.4576 155.271 54.4665C155.173 54.5408 155.077 54.6097 154.979 54.6787C154.861 54.7662 154.743 54.8484 154.622 54.9306C154.051 55.3284 153.464 55.7041 152.862 56.0577C152.773 56.1134 152.678 56.1691 152.585 56.2221C152.53 56.254 152.476 56.2858 152.424 56.3123C152.205 56.437 151.985 56.5589 151.766 56.6756C151.547 56.795 151.322 56.909 151.1 57.0204C150.624 57.2591 150.154 57.5084 149.695 57.7682C149.464 57.9008 149.234 58.0335 149.006 58.1687C148.1 58.7097 147.228 59.2887 146.39 59.9058C145.551 60.5231 144.747 61.179 143.981 61.8709C143.886 61.9557 143.791 62.0433 143.696 62.1334C143.505 62.3058 143.321 62.4808 143.145 62.6559C142.862 62.9237 142.591 63.1995 142.323 63.478C140.908 64.9536 139.656 66.5544 138.584 68.2569C138.046 69.1069 137.557 69.9824 137.119 70.8797C136.787 71.5506 136.484 72.2375 136.21 72.9323C136.029 73.3964 135.859 73.8649 135.7 74.3379C135.622 74.5739 135.547 74.8126 135.475 75.0512C135.23 75.8601 135.025 76.6769 134.858 77.4964C134.722 78.1541 134.612 78.8127 134.529 79.4721C134.486 79.8036 134.451 80.1351 134.419 80.464C134.345 81.2722 134.307 82.0813 134.305 82.8911C134.3 85.3206 134.621 87.7414 135.261 90.0986C135.403 90.6184 135.56 91.1356 135.732 91.65C135.818 91.9073 135.91 92.1619 136.003 92.4165C136.236 93.0529 136.495 93.6832 136.779 94.3073C136.949 94.6813 137.128 95.0525 137.315 95.4212C138.507 97.7646 140.027 99.9544 141.838 101.934C142.135 102.261 142.442 102.582 142.758 102.897C142.761 102.897 142.758 102.9 142.758 102.9C143.543 103.687 144.374 104.434 145.247 105.138H145.25C145.599 105.422 145.954 105.697 146.315 105.963C146.317 105.96 146.317 105.963 146.317 105.963C146.681 106.233 147.047 106.493 147.422 106.745C147.61 106.87 147.8 106.994 147.993 107.119C148.371 107.366 148.757 107.604 149.15 107.832H149.153C149.545 108.066 149.943 108.289 150.347 108.501C151.157 108.928 151.988 109.328 152.842 109.692L152.986 109.753L153.133 109.692C154.502 109.125 155.913 108.649 157.356 108.267C157.673 108.183 157.994 108.106 158.311 108.031C159.113 107.848 159.92 107.695 160.734 107.57C159.941 107.935 159.176 108.349 158.443 108.808C157.875 109.161 157.316 109.546 156.753 109.97C156.566 110.111 156.378 110.256 156.191 110.405L155.723 110.776L156.309 110.954C156.522 111.018 156.736 111.081 156.949 111.14C157.241 111.224 157.529 111.301 157.812 111.373C158.429 111.532 159.05 111.673 159.675 111.795C159.828 111.824 159.978 111.853 160.131 111.882C160.428 111.935 160.728 111.988 161.028 112.036C161.04 112.039 161.053 112.041 161.065 112.041C161.377 112.089 161.691 112.134 162.003 112.174C162.583 112.251 163.162 112.312 163.742 112.357C163.806 112.365 163.869 112.367 163.935 112.37C164.077 112.381 164.215 112.391 164.357 112.399C164.668 112.418 164.982 112.431 165.297 112.442C165.32 112.442 165.34 112.444 165.363 112.444C165.522 112.45 165.68 112.455 165.839 112.458C165.839 112.458 165.839 112.46 165.842 112.458C166.001 112.46 166.159 112.463 166.318 112.463H167.195C167.359 112.463 167.524 112.465 167.691 112.465C167.922 112.465 168.155 112.468 168.386 112.471C168.447 112.471 168.51 112.473 168.574 112.473C168.943 112.479 169.312 112.487 169.681 112.495C169.704 112.495 169.727 112.497 169.75 112.497C170.12 112.508 170.489 112.519 170.858 112.534C170.939 112.537 171.02 112.54 171.103 112.545C171.458 112.558 171.813 112.574 172.168 112.593C172.268 112.598 172.372 112.606 172.476 112.611C172.744 112.625 173.016 112.641 173.284 112.659C173.442 112.667 173.598 112.678 173.757 112.691C174.397 112.736 175.035 112.786 175.675 112.845C175.888 112.861 176.102 112.882 176.315 112.903C176.886 112.959 177.459 113.02 178.034 113.086C178.291 113.113 178.548 113.144 178.805 113.176C178.833 113.179 178.862 113.182 178.891 113.187C179.208 113.227 179.523 113.266 179.84 113.309C180.048 113.335 180.255 113.365 180.463 113.394C180.677 113.423 180.89 113.452 181.103 113.487C181.219 113.502 181.334 113.521 181.452 113.54C181.729 113.579 182.009 113.622 182.289 113.67C182.314 113.672 182.339 113.675 182.364 113.68C182.958 113.776 183.555 113.876 184.149 113.985C184.498 114.046 184.844 114.11 185.191 114.176C185.462 114.226 185.733 114.279 186.004 114.332C186.05 114.34 186.096 114.351 186.142 114.362C186.153 114.364 186.163 114.366 186.174 114.367C186.584 114.449 186.996 114.534 187.406 114.624C188.828 114.927 190.248 115.262 191.666 115.632C191.992 115.714 192.318 115.802 192.644 115.889C192.782 115.926 192.918 115.963 193.053 116.001C193.336 116.078 193.616 116.154 193.899 116.237C194.147 116.306 194.398 116.377 194.646 116.451C194.801 116.497 194.957 116.542 195.113 116.589C195.355 116.658 195.598 116.73 195.837 116.807C196.042 116.865 196.244 116.926 196.446 116.992C196.734 117.08 197.025 117.17 197.314 117.266C197.397 117.292 197.484 117.319 197.568 117.348C197.919 117.459 198.271 117.573 198.623 117.693C198.967 117.807 199.31 117.923 199.65 118.04C199.887 118.122 200.123 118.202 200.357 118.287C200.619 118.379 200.882 118.472 201.141 118.568C201.516 118.703 201.894 118.841 202.269 118.981C202.615 119.109 202.959 119.239 203.305 119.374C203.368 119.398 203.434 119.422 203.498 119.448C203.798 119.562 204.098 119.682 204.395 119.801C204.588 119.875 204.779 119.952 204.969 120.029C205.8 120.363 206.629 120.709 207.458 121.066H207.461C207.98 121.291 208.508 121.506 209.039 121.71C209.163 121.758 209.287 121.806 209.414 121.851C209.624 121.933 209.838 122.01 210.051 122.09C210.19 122.14 210.328 122.19 210.47 122.238C210.674 122.312 210.882 122.384 211.09 122.453C211.309 122.527 211.525 122.601 211.747 122.67C211.825 122.697 211.903 122.721 211.984 122.747C212.241 122.827 212.497 122.906 212.757 122.983C212.783 122.991 212.809 122.999 212.838 123.007C213.109 123.087 213.38 123.166 213.654 123.241C213.676 123.248 213.698 123.254 213.72 123.259C214.015 123.341 214.314 123.421 214.612 123.498C215.05 123.609 215.491 123.715 215.933 123.813C216.013 123.832 216.094 123.851 216.175 123.866C216.411 123.919 216.645 123.97 216.882 124.018C217.133 124.071 217.386 124.118 217.637 124.166C217.891 124.214 218.145 124.262 218.396 124.304C218.531 124.328 218.667 124.352 218.8 124.373L219.155 124.429C219.4 124.468 219.645 124.503 219.893 124.54C219.9 124.54 219.907 124.541 219.913 124.543C220.193 124.582 220.47 124.62 220.75 124.651C221.018 124.686 221.286 124.715 221.554 124.744C221.609 124.75 221.667 124.755 221.725 124.76C221.947 124.784 222.169 124.808 222.391 124.826C222.454 124.832 222.518 124.837 222.581 124.842C222.8 124.861 223.02 124.879 223.239 124.893C223.283 124.898 223.327 124.901 223.372 124.901C223.568 124.917 223.764 124.93 223.96 124.938C224.098 124.948 224.234 124.954 224.372 124.962C224.445 124.964 224.514 124.967 224.586 124.97C224.776 124.98 224.967 124.986 225.16 124.991C225.393 124.999 225.627 125.004 225.858 125.009C226.138 125.015 226.42 125.017 226.7 125.017H226.706C226.98 125.017 227.257 125.015 227.531 125.009H227.635L227.938 125.001C228.093 124.999 228.249 124.994 228.402 124.988C228.696 124.978 228.987 124.964 229.279 124.948C229.394 124.943 229.512 124.935 229.628 124.93C229.68 124.927 229.735 124.922 229.786 124.919C229.968 124.909 230.147 124.898 230.329 124.885C230.516 124.872 230.707 124.856 230.894 124.837C231.136 124.816 231.379 124.792 231.621 124.768C231.811 124.75 232.002 124.728 232.189 124.707C232.214 124.705 232.239 124.701 232.264 124.696C232.446 124.678 232.628 124.657 232.806 124.633C233.02 124.606 233.23 124.577 233.441 124.548C233.464 124.545 233.484 124.543 233.507 124.54C233.871 124.487 234.237 124.434 234.603 124.373C234.987 124.309 235.371 124.24 235.751 124.169C235.893 124.142 236.031 124.113 236.173 124.087C236.25 124.071 236.331 124.057 236.406 124.041C236.524 124.018 236.64 123.994 236.755 123.967C236.775 123.965 236.799 123.959 236.819 123.957C236.98 123.925 237.139 123.888 237.3 123.851C237.623 123.779 237.941 123.705 238.258 123.625C238.399 123.593 238.541 123.559 238.676 123.524C238.717 123.514 238.757 123.503 238.794 123.492C239.38 123.341 239.961 123.181 240.537 123.012C240.791 122.938 241.041 122.861 241.292 122.779C241.832 122.609 242.366 122.431 242.896 122.243C243.038 122.196 243.179 122.143 243.32 122.092C243.528 122.015 243.736 121.938 243.94 121.862C244.125 121.79 244.309 121.718 244.497 121.644C244.589 121.61 244.682 121.572 244.774 121.535C245.051 121.424 245.328 121.31 245.602 121.196C245.786 121.116 245.968 121.039 246.15 120.96C246.438 120.833 246.724 120.703 247.009 120.573C247.081 120.538 247.151 120.504 247.22 120.472C247.402 120.387 247.583 120.299 247.768 120.215C248.059 120.071 248.351 119.928 248.639 119.78C248.737 119.732 248.832 119.682 248.93 119.631C249.248 119.467 249.562 119.3 249.874 119.13C250.563 118.751 251.243 118.355 251.913 117.942C252.08 117.841 252.247 117.735 252.412 117.632C252.723 117.435 253.029 117.234 253.335 117.032C253.367 117.011 253.395 116.99 253.427 116.971C253.58 116.868 253.733 116.764 253.886 116.658C254.203 116.438 254.517 116.215 254.832 115.987C254.838 115.985 254.846 115.977 254.855 115.971C254.996 115.868 255.138 115.765 255.276 115.661C255.706 115.34 256.13 115.014 256.545 114.677C256.75 114.516 256.952 114.348 257.151 114.181C257.301 114.057 257.451 113.932 257.598 113.805C257.895 113.548 258.186 113.293 258.475 113.033C258.619 112.906 258.76 112.773 258.905 112.641C259.046 112.508 259.19 112.375 259.332 112.24C259.381 112.195 259.43 112.147 259.479 112.1C259.623 111.959 259.767 111.816 259.911 111.675C260.035 111.553 260.156 111.426 260.28 111.299C260.488 111.086 260.699 110.874 260.903 110.66C260.914 110.647 260.926 110.636 260.938 110.625C260.95 110.612 260.961 110.601 260.97 110.591H260.967C265.16 106.133 268.275 100.908 270.106 95.2601C271.938 89.6127 272.444 83.672 271.591 77.8312C270.739 71.9904 268.547 66.3827 265.16 61.3792C261.774 56.3757 257.27 52.0905 251.947 48.8072Z" fill="#6D6D6D"/>
<g opacity="0.15">
<path d="M193.565 17.5117C194.14 19.4106 195.005 21.2249 196.134 22.9005C194.243 21.4073 192.554 19.7113 191.103 17.8486C191.918 17.7068 192.739 17.5945 193.565 17.5117Z" fill="black"/>
<path d="M165.419 46.879C163.284 47.9502 161.288 49.2402 159.469 50.7244C162.541 47.385 164.786 43.4713 166.048 39.2547C166.063 39.2041 166.079 39.1531 166.094 39.1024L166.137 38.9588C167.654 33.9263 170.598 29.3546 174.667 25.7112L174.987 25.4246L175.213 25.7788C176.46 27.729 177.953 29.5375 179.66 31.1667C177.044 37.9542 171.953 43.6033 165.419 46.879Z" fill="black"/>
<path d="M180.455 28.8149L180.412 28.9585C180.397 29.0092 180.382 29.0602 180.367 29.1108C180.283 29.3899 180.193 29.6669 180.101 29.9427C179.188 27.7697 178.547 25.5084 178.191 23.2023L178.157 23.0066L178.332 22.8916C180.527 21.4416 182.911 20.2501 185.428 19.345C183.168 22.2029 181.484 25.4103 180.455 28.8149Z" fill="black"/>
<path d="M151.101 57.0229C152.99 56.0721 154.758 54.9308 156.373 53.6202C153.148 57.0727 150.836 61.165 149.618 65.5765C148.401 69.9879 148.311 74.5985 149.356 79.0472C150.401 83.4959 152.552 87.6617 155.641 91.2182C158.729 94.7747 162.672 97.6252 167.159 99.5465L167.305 99.6085L167.451 99.5481C169.874 98.5413 172.43 97.8278 175.053 97.4254C173.416 98.1923 171.889 99.145 170.51 100.261L170.043 100.632L170.629 100.81C171.134 100.964 171.64 101.105 172.131 101.23C175.018 101.97 178.002 102.337 180.998 102.321C194.613 102.241 208.334 105.135 221.779 110.923C224.084 111.914 226.476 112.726 228.929 113.352C239.617 116.088 251.027 115.104 260.975 110.588C255.366 116.552 248.033 120.931 239.826 123.215C231.619 125.5 222.875 125.598 214.61 123.496C212.157 122.87 209.766 122.058 207.46 121.067C194.015 115.279 180.295 112.385 166.68 112.465C163.683 112.481 160.699 112.113 157.812 111.374C157.321 111.249 156.816 111.107 156.31 110.954L155.725 110.776L156.191 110.405C157.571 109.289 159.097 108.336 160.735 107.569C158.111 107.972 155.556 108.685 153.132 109.692L152.986 109.752L152.841 109.69C147.452 107.384 142.866 103.747 139.595 99.1839C136.324 94.621 134.496 89.3121 134.316 83.8497C134.135 78.3872 135.609 72.9862 138.573 68.2491C141.537 63.5121 145.874 59.6254 151.101 57.0229Z" fill="black"/>
</g>
</g>
<defs>
<clipPath id="clip0_3_46">
<rect width="272" height="211" fill="white"/>
</clipPath>
</defs>
</svg>
