<svg width="24" height="24" viewBox="0 0 24 24" fill="none" xmlns="http://www.w3.org/2000/svg">
<path d="M5.5 24C5.08333 24 4.72917 23.8542 4.4375 23.5625C4.14583 23.2708 4 22.9167 4 22.5V11.65C4 11.2333 4.14583 10.8792 4.4375 10.5875C4.72917 10.2958 5.08333 10.15 5.5 10.15H7.25V7.75C7.25 6.43333 7.7125 5.3125 8.6375 4.3875C9.5625 3.4625 10.6833 3 12 3C13.3167 3 14.4375 3.4625 15.3625 4.3875C16.2875 5.3125 16.75 6.43333 16.75 7.75V10.15H18.5C18.9167 10.15 19.2708 10.2958 19.5625 10.5875C19.8542 10.8792 20 11.2333 20 11.65V22.5C20 22.9167 19.8542 23.2708 19.5625 23.5625C19.2708 23.8542 18.9167 24 18.5 24H5.5ZM12 19C12.5333 19 12.9875 18.8167 13.3625 18.45C13.7375 18.0833 13.925 17.6417 13.925 17.125C13.925 16.625 13.7375 16.1708 13.3625 15.7625C12.9875 15.3542 12.5333 15.15 12 15.15C11.4667 15.15 11.0125 15.3542 10.6375 15.7625C10.2625 16.1708 10.075 16.625 10.075 17.125C10.075 17.6417 10.2625 18.0833 10.6375 18.45C11.0125 18.8167 11.4667 19 12 19ZM8.75 10.15H15.25V7.75C15.25 6.85 14.9333 6.08333 14.3 5.45C13.6667 4.81667 12.9 4.5 12 4.5C11.1 4.5 10.3333 4.81667 9.7 5.45C9.06667 6.08333 8.75 6.85 8.75 7.75V10.15Z" fill="#6C3082"/>
</svg>
